PathFileType	4	(X/Y/Z)	Squat.trc	
DataRate	CameraRate	NumFrames	NumMarkers	Units	OrigDataRate	OrigDataStartFrame	OrigNumFrames	
100.00	100.00	20	6	mm	100.00	1157	1542	
Frame#	Time	RAsis			SACR			LThighInferior			LThighLateral			LAsis			LThighSuperior			
		X1	Y1	Z1	X2	Y2	Z2	X3	Y3	Z3	X4	Y4	Z4	X5	Y5	Z5	X6	Y6	Z6	

386	3.850	537.01404	1331.47754	938.11108	412.16302	1165.42395	989.42041	216.09381	1323.90662	602.04218	237.98322	1393.34143	702.17328	287.82239	1335.91785	930.07190	204.77654	1288.28455	745.45728 
387	3.860	537.31708	1333.51367	939.79993	412.32431	1168.78589	990.61139	216.03842	1323.85303	603.04437	238.22433	1394.12537	702.47913	287.83069	1338.21362	931.80286	204.17442	1289.96545	747.00128 
388	3.870	537.75739	1335.40759	941.32367	412.53506	1170.36108	992.20691	215.95766	1323.79590	604.01605	238.17371	1395.02612	702.74969	287.83572	1340.72986	933.52954	203.56256	1291.56165	748.40167 
389	3.880	535.80450	1338.69067	944.17407	412.73605	1172.39429	993.39337	215.88876	1323.72583	604.94525	237.97139	1395.98193	702.97455	287.40530	1342.77893	935.01440	204.03539	1292.48743	749.42542 
390	3.890	536.79688	1340.96399	945.38428	412.23883	1173.49475	995.12823	215.87604	1323.58276	605.82959	237.87634	1396.91699	703.14929	288.36539	1345.78943	937.06616	204.52075	1293.49792	750.49030 
391	3.900	537.06720	1342.96851	946.91980	412.05917	1175.44153	996.31268	215.89578	1323.41235	606.65472	237.86882	1397.78748	703.26300	287.41888	1346.86633	937.95520	204.54973	1294.75549	751.61542 
392	3.910	537.25745	1344.90808	948.23590	412.56967	1178.85339	996.72296	215.96959	1323.25073	607.39899	237.96921	1398.51379	703.31494	287.95383	1349.86682	939.72278	204.59470	1295.88696	752.59680 
393	3.920	537.37830	1347.09961	949.60516	412.72113	1180.85583	997.79193	216.06209	1323.07129	608.09296	238.24617	1399.05933	703.30145	288.11993	1352.39099	941.10895	204.66972	1297.02356	753.51044 
394	3.930	537.51050	1349.17773	951.01025	412.76703	1182.63379	998.83728	216.15244	1322.88074	608.72937	238.39032	1399.69299	703.27753	287.25400	1353.70947	941.99292	204.76384	1298.19836	754.43591 
395	3.940	537.76526	1351.16016	952.09583	412.69351	1184.59961	999.49084	216.25934	1322.72974	609.33624	238.39716	1400.44434	703.24390	288.12036	1356.53418	943.63434	204.82535	1299.36475	755.31610 
396	3.950	537.81763	1353.38037	953.24634	412.74103	1186.44641	1000.11450	216.33963	1322.68018	609.95276	238.42596	1401.14282	703.19934	288.01840	1358.84985	944.84399	204.87236	1300.46582	756.05554 
397	3.960	537.85663	1355.46375	954.32770	413.17987	1187.68579	1001.06195	216.40622	1322.69324	610.53473	238.46510	1401.81482	703.15247	287.59726	1360.06409	945.38257	204.93027	1301.62402	756.76978 
398	3.970	538.02130	1357.41479	955.30231	413.07272	1190.89221	1001.63135	216.52049	1322.65442	611.08234	238.39117	1402.58643	703.03479	288.28543	1362.84705	946.84265	204.97310	1302.88184	757.49579 
399	3.980	538.09882	1359.46985	956.30206	413.34128	1192.24500	1002.19958	216.65215	1322.63171	611.62537	238.29926	1403.41113	702.90442	288.21835	1364.96216	947.75531	205.04375	1304.05481	758.18274 
400	3.990	538.22791	1361.41064	957.21259	413.26993	1194.16028	1002.42218	216.76024	1322.69373	612.13452	238.33226	1404.13123	702.74622	287.93466	1366.55542	948.28027	205.09035	1305.19641	758.82288 
401	4.000	538.41644	1363.20422	958.05780	413.18900	1196.07056	1002.91974	216.84584	1322.75525	612.57312	238.38210	1404.80518	702.51678	288.69427	1369.26819	949.55963	205.07048	1306.41504	759.40637 
402	4.010	538.60107	1364.94556	958.87122	413.19455	1197.90942	1003.49933	216.90276	1322.80530	612.93555	238.55815	1405.50867	702.36652	288.90381	1371.70679	950.61743	205.12619	1307.53784	759.87701 
403	4.020	538.67737	1366.78003	959.68134	413.22998	1199.59473	1003.61798	216.93977	1322.89734	613.26715	238.77792	1406.21997	702.23517	288.65796	1372.81409	950.97351	205.20465	1308.66016	760.30524 
404	4.030	538.76111	1368.55542	960.42810	413.22903	1201.09265	1003.85614	216.94748	1323.07520	613.61493	238.79883	1406.92261	701.96149	288.73770	1374.95850	951.53693	205.24045	1309.89368	760.78369 
405	4.040	538.95978	1370.10132	961.03674	413.29221	1202.70679	1004.24310	216.97697	1323.26843	613.93927	238.82896	1407.60120	701.68073	289.00366	1376.56714	952.23224	205.00720	1311.46362	761.08612 
